<mxfile host="app.diagrams.net" modified="2023-08-25T16:25:41.645Z" agent="Mozilla/5.0 (X11; Linux x86_64; rv:103.0) Gecko/20100101 Firefox/103.0" version="21.6.9" etag="7jK9MsIqaQrRwo9lPW32" type="github">
  <diagram name="PÃ¡gina-1" id="7wN9GGz8QV2Y1cZe8qsb">
    <mxGraphModel>
      <root>
        <mxCell id="0" />
        <mxCell id="1" parent="0" />
      </root>
    </mxGraphModel>
  </diagram>
</mxfile>
